<?xml version="1.0" standalone="no"?>
<!DOCTYPE svg PUBLIC "-//W3C//DTD SVG 20010904//EN"
 "http://www.w3.org/TR/2001/REC-SVG-20010904/DTD/svg10.dtd">
<svg version="1.0" xmlns="http://www.w3.org/2000/svg"
 width="193.000000pt" height="193.000000pt" viewBox="0 0 193.000000 193.000000"
 preserveAspectRatio="xMidYMid meet">
<metadata>
Created by potrace 1.11, written by Peter Selinger 2001-2013
</metadata>
<g transform="translate(0.000000,193.000000) scale(0.100000,-0.100000)"
fill="#000000" stroke="none">
<path d="M908 1671 c-108 -69 -350 -414 -576 -821 -13 -25 -40 -71 -58 -103
-19 -32 -34 -60 -34 -61 0 -2 -20 -41 -45 -86 -59 -106 -185 -348 -185 -355 0
-3 11 2 25 11 14 9 23 20 20 24 -8 13 396 414 590 586 251 221 531 409 658
440 l27 6 -22 37 c-79 130 -228 301 -289 332 -50 25 -57 24 -111 -10z"/>
<path d="M1250 944 c-283 -60 -640 -250 -1083 -577 -59 -44 -106 -81 -103 -84
2 -3 37 13 78 34 274 146 593 235 848 237 59 0 209 -13 219 -18 3 -2 22 -7 41
-10 19 -3 60 -13 90 -21 30 -9 62 -17 70 -19 74 -18 311 -131 440 -209 56 -35
76 -42 78 -32 5 20 -32 98 -130 280 -119 220 -126 232 -181 326 -46 77 -55 87
-90 96 -55 15 -200 13 -277 -3z"/>
</g>
</svg>
